<svg xmlns="http://www.w3.org/2000/svg" viewBox="0 0 352 240">
  <path fill="#E3EEFF" d="M6.135 151.954h79.797a4.534 4.534 0 014.534 4.534v55.994a4.534 4.534 0 01-4.534 4.534H6.135a4.534 4.534 0 01-4.534-4.534v-55.994a4.534 4.534 0 014.534-4.534z"/>
  <path fill="#CDE2FF" d="M12.482 158.301h67.102a4.534 4.534 0 014.534 4.534v15.416a4.534 4.534 0 01-4.534 4.534H12.482a4.534 4.534 0 01-4.534-4.534v-15.416a4.534 4.534 0 014.534-4.534zM12.482 187.545h67.102a4.534 4.534 0 014.534 4.534v15.416a4.534 4.534 0 01-4.534 4.534H12.482a4.534 4.534 0 01-4.534-4.534v-15.416a4.534 4.534 0 014.534-4.534z"/>
  <path fill="#E3EEFF" d="M46.034 174.397a3.854 3.854 0 10-.001-7.708 3.854 3.854 0 000 7.708zM46.034 203.641a3.854 3.854 0 10-.001-7.708 3.854 3.854 0 000 7.708z"/>
  <path fill="#CDE2FF" d="M4.094 216.789h10.201l-2.825 6.277a4.733 4.733 0 01-4.316 2.791 3.06 3.06 0 01-3.06-3.06v-6.008zM87.746 216.789v6.008a3.06 3.06 0 01-3.06 3.06 4.733 4.733 0 01-4.317-2.791l-2.825-6.277h10.202zM42.553 118.22c2.151-3.443 3.603-5.648 4.356-6.616 1.13-1.452 2.098-5.163.323-7.906-1.775-2.743-4.518-5.325-.323-9.36 2.26-2.097 2.905-4.033 3.227-6.615.323-2.581.968-4.034 3.55-4.034s5.486 2.582 5.486 8.875c-.161 2.582-1.29 3.389-2.097 5.163-.807 1.775-1.13 3.066.806 5.486 1.937 2.421 5.164.646 1.937 6.132-2.152 3.657-4.572 9.144-7.261 16.458l-4.68 10.488c-4.195-1.075-6.293-1.936-6.293-2.581 0-.646.323-5.809.969-15.49z"/>
  <path fill="#CDE2FF" d="M66.756 115.638c8.605-.645 12.747 1.506 12.424 6.454-.161 2.421-3.711 5.487-5.648 2.905-1.936-2.582-4.195-1.452-5.486 0-1.29 1.452-4.679 2.259-6.938 1.291-.968-.484-2.259.484-2.581 1.613-.323 1.13-1.453 2.421-3.228 2.421-1.775 0-2.259.968-2.743 2.581-.484 1.614-5.002 8.875-3.388.484 1.613-8.39 3.711-12.747 6.777-15.006 2.044-1.506 5.647-2.42 10.81-2.743z"/>
  <path fill="#fff" d="M58.218 122.415c2.65-.212 4.578-.633 5.791-1.267l.822-.444.234-.123.117-.06.092-.047c1.352-.686 2.497-1.102 3.592-1.226.797-.09 1.526-.013 2.187.251l.247.101.285.121c.195.084.406.178.649.289l.594.273c2.621 1.204 4.094 1.648 6.353 1.648v-.323c-2.153 0-3.573-.414-6.051-1.542l-.871-.399-.359-.161a23.59 23.59 0 00-.727-.307c-.713-.285-1.496-.367-2.343-.271-1.097.124-2.228.524-3.543 1.179l-.252.127-.355.185c-.185.098-.404.217-.744.402-1.159.632-3.075 1.058-5.744 1.272l.026.322z"/>
  <path fill="#E3EEFF" d="M46.748 130.967c-.215-2.69.215-4.572 1.291-5.648 1.614-1.613 1.13-4.356 1.775-6.777.645-2.42 1.936-4.034 4.356-5.486s3.389-2.42 3.389-4.84c0-2.421 3.388-4.196 4.84-5.487 1.453-1.29 6.132-8.713 9.843-6.292 3.712 2.42 1.291 8.551 0 10.81-1.29 2.259-2.581 4.196-3.065 6.293-.485 2.098-.646 4.357-6.132 5.648-2.098.645-2.42 1.936-2.904 3.227s-1.775 5.325-4.518 5.97c-2.743.645-3.712 1.614-3.227 5.002.322 2.259-.538 2.474-2.582.645l-3.066-3.065z"/>
  <path fill="#CDE2FF" d="M37.874 131.612c-.323-1.721-1.345-3.012-3.066-3.872-2.582-1.291-3.55-1.775-4.034-5.002-.323-2.421-2.259-1.452-3.873-3.227-1.613-1.775-1.452-3.873-4.679-3.873-3.227 0-6.777-2.743-2.098-6.616 4.68-3.872 10.65-.645 12.102.969 1.452 1.613 8.875 17.587 9.359 20.33.484 2.744 1.13 8.068-1.291 5.002-1.613-2.043-2.42-3.28-2.42-3.711z"/>
  <path fill="#fff" d="M31.846 115.353a13.93 13.93 0 00-4.102-2.397l-.143-.052c-.636-.227-1.12-.684-1.831-1.629l-.493-.666-.122-.162c-.56-.738-.986-1.198-1.514-1.584-.729-.531-1.554-.809-2.548-.809v.323c1.653 0 2.616.685 3.87 2.351l.497.671.104.139.11.142c.647.832 1.133 1.27 1.77 1.51l.049.018a13.59 13.59 0 014.146 2.393l.207-.248z"/>
  <path fill="#E3EEFF" d="M43.199 130.967c.43-6.454.43-10.919 0-13.393-.646-3.711 1.775-8.39-1.452-10.972-3.228-2.582-5.325-4.841-7.261-9.359-1.937-4.517-6.777-5.808-9.52-4.84-2.744.968-3.873 2.42-.969 5.97 1.291 1.936-.16 7.584 2.582 10.165 2.743 2.582 4.518 3.389 4.518 7.423 0 4.034-.161 5.647 3.389 8.229.968.968 4.033 4.195 4.356 6.777.215 1.721 1.668 1.721 4.357 0z"/>
  <path fill="#CDE2FF" d="M41.1 130.967h10.166a8.874 8.874 0 018.875 8.874v3.066a8.875 8.875 0 01-8.875 8.875H41.101a8.875 8.875 0 01-8.875-8.875v-3.066a8.874 8.874 0 018.875-8.874z"/>
  <path fill="#fff" d="M42.552 130.949c-.212-1.909-.58-3.408-1.108-4.497l-.038-.076c-.282-.565-.297-1.033-.148-2.227l.041-.328.021-.179c.151-1.346.081-2.117-.398-3.074-.294-.59-.643-1.106-1.242-1.881l-.537-.688-.145-.189-.104-.138a7.501 7.501 0 01-.097-.13l-.047-.063c-.838-1.15-1.175-2.001-1.04-2.948.22-1.529.245-2.608-.001-3.787-.312-1.493-1.065-2.915-2.378-4.326l-.226-.238-.504-.523c-.576-.595-1.261-1.297-1.355-1.395l-.194-.204-.125-.134c-.447-.483-.754-.853-1.002-1.217-.568-.833-.815-1.643-.828-2.79v-.092c0-1.896-2.015-4.4-6.032-7.55l-.2.255.235.184.223.178c3.6 2.889 5.413 5.193 5.45 6.88l.001.053c0 1.26.264 2.154.885 3.064.303.445.687.895 1.286 1.525l1.74 1.795c.13.134.243.252.328.343 1.325 1.397 2.074 2.794 2.38 4.258.237 1.135.212 2.181-.002 3.676-.15 1.048.215 1.972 1.099 3.183l.12.163.131.174.682.876.175.228c.482.638.782 1.094 1.036 1.602.464.928.515 1.671.344 3.071l-.05.404-.018.153c-.124 1.07-.094 1.559.189 2.142l.019.039c.528 1.056.9 2.545 1.113 4.463l.321-.035zM44.974 130.967c0-2.935.565-5.244 1.692-6.929l.054-.079c.414-.602 1.651-2.206 1.858-2.512.754-1.117 1.064-2.16 1.075-3.935l-.002-.739-.01-1.512v-.389c.002-.792.023-1.187.08-1.661l.01-.078c.084-.66.241-1.317.523-2.176l.036-.109c.053-.158.108-.319.169-.491l.095-.268.397-1.1.065-.182.065-.187c.093-.274.17-.514.24-.749.4-1.349.508-2.489.285-3.77l-.056-.298-.033-.164c-.071-.331-.16-.654-.402-1.482l-.158-.542c-.42-1.43-.62-2.3-.702-3.259-.107-1.24.045-2.373.514-3.47l.53-1.23.141-.33c.759-1.787 1.147-2.827 1.495-4.084.521-1.88.73-3.677.59-5.564l-.322.024c.137 1.848-.067 3.609-.579 5.453l-.06.214-.062.214c-.345 1.16-.762 2.228-1.547 4.056l-.482 1.12c-.492 1.148-.65 2.334-.54 3.625.08.934.268 1.778.649 3.098l.317 1.088c.236.813.285 1.025.37 1.48.239 1.272.14 2.387-.257 3.729l-.043.142-.05.161c-.061.191-.129.393-.208.619l-.124.346-.357.988-.076.215a32.33 32.33 0 00-.17.496c-.298.895-.468 1.58-.561 2.261l-.025.192-.016.143c-.056.522-.069 1.01-.063 2.113l.01 1.535.001.423c0 1.74-.278 2.733-.98 3.794l-.04.06c-.199.295-1.435 1.897-1.856 2.509-1.204 1.751-1.803 4.149-1.803 7.191h.323zM49.814 130.967c0-3.405.794-5.947 2.377-7.635 2.205-2.352 3.023-4.019 3.59-6.856.265-1.324 1.168-2.428 2.654-3.527.261-.193.532-.38.856-.595l.94-.616.233-.156.158-.108c.743-.511 1.153-.852 1.576-1.337.603-.689 1.07-1.549 1.45-2.73l.106-.336.048-.147c.635-1.928 1.134-2.504 2.924-3.571l.273-.161c2.114-1.234 4.47-4.08 5.395-6.702l-.304-.107c-.9 2.549-3.205 5.335-5.254 6.53l-.14.083-.139.081c-1.942 1.16-2.449 1.799-3.157 4.044l-.025.078c-.374 1.198-.829 2.051-1.42 2.726l-.075.085-.082.088c-.38.404-.792.727-1.514 1.216l-.274.184-.807.527-.18.119-.187.126c-.212.145-.405.281-.593.42-1.545 1.142-2.495 2.304-2.779 3.723-.541 2.708-1.306 4.308-3.344 6.521l-.165.177c-1.645 1.755-2.464 4.376-2.464 7.856h.323z"/>
  <path fill="#CDE2FF" d="M197.627 11.134h120.817v124.551H197.627V11.134z"/>
  <path fill="#E3EEFF" d="M197.627 5h120.817a2.934 2.934 0 010 5.867H197.627a2.934 2.934 0 010-5.867zM197.627 135.685h120.817a2.934 2.934 0 110 5.867H197.627a2.934 2.934 0 110-5.867z"/>
  <path fill="#fff" d="M206.429 78.344h28.004a2.667 2.667 0 012.667 2.667v45.873a2.667 2.667 0 01-2.667 2.667h-28.004a2.667 2.667 0 01-2.667-2.667V81.011a2.667 2.667 0 012.667-2.667zM206.429 22.336h28.004a2.667 2.667 0 012.667 2.667v45.873a2.667 2.667 0 01-2.667 2.667h-28.004a2.667 2.667 0 01-2.667-2.667V25.003a2.667 2.667 0 012.667-2.667zM244.034 78.344h28.004a2.667 2.667 0 012.667 2.667v45.873a2.667 2.667 0 01-2.667 2.667h-28.004a2.667 2.667 0 01-2.667-2.667V81.011a2.667 2.667 0 012.667-2.667zM244.034 22.336h28.004a2.667 2.667 0 012.667 2.667v45.873a2.667 2.667 0 01-2.667 2.667h-28.004a2.667 2.667 0 01-2.667-2.667V25.003a2.667 2.667 0 012.667-2.667zM281.639 78.344h28.004a2.667 2.667 0 012.667 2.667v45.873a2.667 2.667 0 01-2.667 2.667h-28.004a2.667 2.667 0 01-2.667-2.667V81.011a2.667 2.667 0 012.667-2.667zM281.639 22.336h28.004a2.667 2.667 0 012.667 2.667v45.873a2.667 2.667 0 01-2.667 2.667h-28.004a2.667 2.667 0 01-2.667-2.667V25.003a2.667 2.667 0 012.667-2.667z"/>
  <path fill="#E3EEFF" d="M203.762 17.002H312.31v41.072a5.334 5.334 0 01-5.334 5.334h-97.88a5.334 5.334 0 01-5.334-5.334V17.002z"/>
  <path fill="#CDE2FF" d="M209.629 119.949h21.069l-3.009 14.669h-15.05l-3.01-14.669z"/>
  <path fill="#E3EEFF" d="M220.164 119.949c6.997 0 12.668-5.671 12.668-12.668 0-6.997-5.671-12.668-12.668-12.668-6.997 0-12.668 5.671-12.668 12.668 0 6.997 5.671 12.668 12.668 12.668z"/>
  <path fill="#CDE2FF" d="M210.649 98.922c.093-.48.496-.842.98-.842s.888.361.98.842h.02c.553 0 1 .471 1 1.053 0 .581-.447 1.052-1 1.052 0 .582-.447 1.053-1 1.053-.552 0-1-.471-1-1.053-.552 0-1-.471-1-1.052 0-.582.448-1.053 1-1.053h.02zM229.851 100.255c.093-.48.496-.842.98-.842s.888.362.981.842h.019c.553 0 1.001.472 1.001 1.053s-.448 1.053-1.001 1.053c0 .581-.447 1.053-1 1.053-.552 0-1-.472-1-1.053-.552 0-1-.472-1-1.053s.448-1.053 1-1.053h.02zM221.584 104.523c.092-.481.496-.842.98-.842s.887.361.98.842h.02c.552 0 1 .471 1 1.053 0 .581-.448 1.052-1 1.052 0 .582-.448 1.053-1 1.053-.553 0-1-.471-1-1.053-.553 0-1.001-.471-1.001-1.052 0-.582.448-1.053 1.001-1.053h.02zM226.651 113.057c.093-.48.497-.842.981-.842s.887.362.98.842h.02c.552 0 1 .471 1 1.053 0 .581-.448 1.053-1 1.053 0 .581-.448 1.052-1 1.052-.553 0-1.001-.471-1.001-1.052-.552 0-1-.472-1-1.053 0-.582.448-1.053 1-1.053h.02zM213.849 111.99c.093-.48.496-.842.98-.842s.888.362.981.842h.02c.552 0 1 .472 1 1.053 0 .582-.448 1.053-1 1.053 0 .581-.448 1.053-1.001 1.053-.552 0-1-.472-1-1.053-.552 0-1-.471-1-1.053 0-.581.448-1.053 1-1.053h.02z"/>
  <path fill="#CDE2FF" d="M88.546 78.877h192.56c7.364 0 13.335 5.97 13.335 13.335v124.284c0 7.365-5.971 13.335-13.335 13.335H88.546c-7.365 0-13.336-5.97-13.336-13.335V92.212c0-7.365 5.97-13.335 13.336-13.335z"/>
  <path fill="#E3EEFF" d="M110.148 113.815h154.155a8 8 0 018.001 8.001v108.815H102.147V121.816a8 8 0 018.001-8.001z"/>
  <path fill="#fff" d="M187.36 157.821c10.089 0 18.269-8.179 18.269-18.269 0-10.09-8.18-18.269-18.269-18.269-10.09 0-18.27 8.179-18.27 18.269 0 10.09 8.18 18.269 18.27 18.269z"/>
  <path fill="#CDE2FF" d="M187.492 138.138a5.76 5.76 0 110-11.52 5.76 5.76 0 010 11.52zm0 1.28a9.602 9.602 0 019.602 9.602v2.56a.64.64 0 01-.64.64h-17.923a.64.64 0 01-.64-.64v-2.56c0-5.303 4.299-9.602 9.601-9.602z"/>
  <path fill="#fff" fill-rule="evenodd" d="M135.752 178.357h98.147a8.001 8.001 0 010 16.003h-98.147a8.002 8.002 0 010-16.003zM135.752 210.362h98.147a8 8 0 110 16.002h-98.147a8 8 0 110-16.002z" clip-rule="evenodd"/>
  <path fill="#CDE2FF" fill-rule="evenodd" d="M130.418 167.689h34.138a2.667 2.667 0 110 5.334h-34.138a2.667 2.667 0 110-5.334zM130.418 199.694h34.138a2.667 2.667 0 110 5.334h-34.138a2.667 2.667 0 110-5.334z" clip-rule="evenodd"/>
  <path fill="#007ACC" fill-rule="evenodd" d="M88.546 78.877h192.56c7.364 0 13.335 5.97 13.335 13.335v6.4H75.211v-6.4c0-7.365 5.97-13.335 13.335-13.335z" clip-rule="evenodd"/>
  <path fill="#fff" d="M94.413 94.612a5.6 5.6 0 100-11.201 5.6 5.6 0 000 11.201z"/>
  <path fill="#B99E32" d="M166.987 18.397c2.332 5.644-1.529 11.748-3.262 10.669-1.155-.72-6.181 14.962-1.492 21.814 4.594 6.715 1.657 9.9-1.052 11.826l-.165.117c-1.835 1.276-3.348.87-4.54-1.216 1.044 4.902.385 8.147-1.978 9.734-5.315 3.57-20.951-.078-35.049-17.442-14.097-17.365-.865-23.766 1.78-23.537 7.206.625 3.863-3.45 9.281-3.764 3.612-.21 7.298-9.931 15.23-14.696 0 0 1.824-1.14 4.475-1.884 2.65-.745 13.014-.714 16.772 8.38z"/>
  <path fill="#F4CDB7" d="M150.154 38.923l-.129-.486c-2.083-7.75-3.982-10.263-5.934-8.221l-.06.065c-2.013 2.202-6.943 5.814-13.22 7.834-6.376-.323-7.596 3.197-9.669 3.182l-.063-.002c-1.529-.064 3.842 3.205 10.32 11.486l.196.253c6.897 8.896 14.383 13.841 13.795 10.818-1.146-5.901 4.137-12.342 1.496-15.089-2.642-2.747-5.776-3.212-3.749-5.342l1.041-1.097c1.895-1.976 4.204-4.148 5.976-3.4z"/>
  <path fill="#F4CDB7" d="M137.713 53.742c-1.378 3.35 12.768 20.87 18.783 24.26 3.804 2.143 18.836 1.043 27.868 1.043l.265.379c2.033 2.886 3.416 4.304 4.149 4.252.797-.056.541-1.426-.768-4.109l.678-.062c3.139-.296 5.921-.66 8.344-1.095l.258-.047c.609-.111-2.726-1.054-10.006-2.828-.44-.103-15.644-1.374-18.742-2.837-.98-.462-2.753-.941-5.322-1.437l-.64-.866c-10.365-14.011-16.343-21.097-17.936-21.257-6.655-.669-5.553 1.254-6.931 4.604z"/>
  <path fill="#008A00" fill-rule="evenodd" d="M148.393 49.005c-4.95-5.153-6.66.342-7.318 10.894-.224 3.59 4.552 9.042 6.899 11.413 1.641 1.657 9.726-1.218 10.534-7.383.053-.404-2.321-2.392-3.851-4.848-1.975-3.171-3.475-7.173-6.264-10.076z" clip-rule="evenodd"/>
  <path fill="#008A00" fill-rule="evenodd" d="M143.997 46.061c-.344-.312-4.18 9.27-9.747 6.252s-1.998-14.44-3.132-14.68c-5.046-1.063-10.286.311-14.028 2.847-3.664 2.484-4.98 7.537-6.921 13.545l-.125.384c-1.361 4.181-2.186 9.718-3.354 16.277-.399 2.245-1.914 4.976-4.543 8.19l1.774.085c18.867.878 29.51.85 31.929-.084.592-.228.301-.739.575-1.042 2.01-2.23 4.911-3.352 6.593-5.892 3.184-4.808 6.319-18.193 5.404-22.913-.146-.753-4.226-2.788-4.425-2.969z" clip-rule="evenodd"/>
  <path fill="#EEA7A5" d="M147.22 42.605l-5.6-8.001.058.35c.938 5.583 1.841 7.989 2.709 7.217l.027-.025c.895-.863 1.83-.71 2.806.46z"/>
  <path fill="#F4CDB7" d="M142.628 24.1c-2.355-1.171-6.285 2.535-5.762 5.225a4.966 4.966 0 004.035 3.945c1.231 6.027 6.263 10.527 9.277 11.651 2.568.958 10.811-6.392 12.953-12.843 2.068-3.504-.209-6.659.512-9.209-3.659 3.705-11.011 3.423-13.674 3.693-.229.023-4.226 4.648-4.769 4.616-.789-.047-.256-1.929-.468-1.652.167-2.836-.534-4.645-2.104-5.426z"/>
  <path fill="#00497A" d="M154.997 33.488c.31.139.722-.025.92-.366.198-.34.106-.73-.204-.869-.311-.139-.723.025-.921.366-.197.34-.106.73.205.869zM159.53 35.621c.311.14.723-.024.921-.365.198-.341.106-.73-.204-.869-.311-.139-.723.025-.921.366-.198.34-.106.73.204.868z"/>
  <path fill="#B99E32" d="M155.92 28.976c.8.342 1.553.393 1.683.114.129-.28-.414-.784-1.214-1.126-.799-.342-1.552-.393-1.682-.114-.129.28.414.784 1.213 1.126zM162.183 33.587c.63.614 1.307.911 1.513.663.207-.248-.137-.948-.767-1.562-.629-.614-1.307-.911-1.513-.663-.206.248.137.947.767 1.562z"/>
  <path fill="#EEA7A5" d="M157.331 34.21l-.025.425c-.11 2.027-.041 3.352.212 3.993l.018.043c.101.235.048.34-.199.399-.312.075-.871.039-1.666-.113a.153.153 0 00-.18.117.15.15 0 00.121.175l.212.038c.726.127 1.251.152 1.586.072.415-.1.57-.379.426-.758l-.018-.044c-.261-.61-.325-2.06-.182-4.329a.15.15 0 00-.143-.157.152.152 0 00-.162.14zM140.013 27.404c.802-1.192 1.38-1.536 1.759-1.156.44.44.746 1.587.897 3.424a.142.142 0 10.284-.024l-.023-.26c-.163-1.752-.476-2.862-.956-3.344-.565-.566-1.306-.125-2.197 1.199a.144.144 0 00.039.199.141.141 0 00.197-.038z"/>
  <path fill="#EEA7A5" d="M142.267 27.137c-.959.103-1.371.527-1.099 1.237.032.081.114.118.185.082.07-.036.102-.13.071-.212-.173-.45.071-.702.869-.787.077-.009.133-.087.126-.175-.007-.088-.075-.153-.152-.145zM149.928 40.565c.592.416 2.504.062 3.081-.83.576-.892-2.174-3.997-2.751-3.105-.576.892-.921 3.518-.33 3.934z"/>
  <path fill="#F4CDB7" d="M112.463 59.977c-1.432 7.173 7.967 28.675 8.352 30.195.59 2.33 20.908 23.967 22.574 25.124 1.665 1.157 2.951 2.642 5.531 3.639l.101.037.104.034c1.356.427 2.806-.041 1.719-1.22 2.017.822 3.001-.584 1.691-1.554 2.426.613 3.073-1.077 1.7-1.837l2.023.447.772.165c2.328.487 3.019.5 3.14-.136.16-.84-7.69-3.065-8.438-3.898-.068-.077-.212-1.546-1.16-1.809-1.259-.35-4.265.416-4.557.145-7.659-7.114-12.211-17.05-16.341-21.887l-.124-.73-.108-.617c-.914-5.15-2.976-15.462-6.187-30.938-6.24-1.555-9.837.058-10.792 4.84z"/>
  <path fill="#008A00" fill-rule="evenodd" d="M121.085 43.488c-4.685-4.475-9.722 3.432-10.778 12.906l-.073.697c-.34 3.41-.849 9.936 1.308 11.931 1.57 1.452 13.312.92 14.306-4.702.065-.369-2.096-18.285-4.763-20.832z" clip-rule="evenodd"/>
  <path fill="#423565" d="M144.328 69.547l-.023-1.555c-.03-2.445-.023-4.158.02-5.142l.012-.24c.039-.668.121-1.381.232-2.105.047-.304.096-.593.146-.863l.061-.314.05-.244a.267.267 0 01.521.114l-.058.283-.02.103a27.42 27.42 0 00-.173 1.002 22.208 22.208 0 00-.226 2.055l-.009.17c-.055 1.147-.055 3.392 0 6.727a.267.267 0 01-.533.009zM119.399 69.023c3.989-1.33 5.952-2.83 5.952-4.438l-.001-.171-.003-.273-.005-.192c-.047-1.831-.281-4.76-.704-8.78a.267.267 0 01.531-.056l.13 1.26.116 1.184.106 1.13c.242 2.667.363 4.633.363 5.898 0 1.921-2.126 3.548-6.316 4.944a.267.267 0 01-.169-.506z"/>
  <path fill="#fff" d="M111.749 94.612a5.601 5.601 0 100-11.202 5.601 5.601 0 000 11.202z"/>
  <path fill="#CDE2FF" d="M20.536 5h10.402v40.272H20.536V5zM32.004 7.934h10.402v37.072H32.004V7.934zM50.14 16.347l6.24-3.613 16.964 29.46-6.24 3.612-16.963-29.46z"/>
  <path fill="#E3EEFF" d="M43.206 7.934h7.2v37.072h-7.2V7.934zM2.667 45.272h86.679a2.667 2.667 0 012.667 2.667v2.4a2.667 2.667 0 01-2.667 2.668H2.667A2.667 2.667 0 010 50.339v-2.4a2.667 2.667 0 012.667-2.667z"/>
  <path fill="#CDE2FF" d="M12.535 52.74h6.934v5.067a2.667 2.667 0 01-2.667 2.667h-1.6a2.667 2.667 0 01-2.667-2.667V52.74zM73.077 52.74h6.934v5.067a2.667 2.667 0 01-2.667 2.667h-1.6a2.667 2.667 0 01-2.667-2.667V52.74z"/>
  <path fill="#A76F4F" d="M269.793 154.951l-1.7 2.098c-4.741 5.865-9.66 12.037-10.865 12.447-1.883.641-26.12 2.817-35.346-.054l-.275-.089c-.33-.11-3.323-.622-4.487-2.191l-.055-.077c-.927-1.346-4.07-2.535-4.07-3.045 0-.34 1.357-.099 4.07.723l-.843-.595-.653-.467c-2.034-1.465-3.036-2.286-3.005-2.463.037-.217 1.619.488 4.745 2.113l-.654-.614c-2.347-2.218-3.487-3.46-3.42-3.726.074-.291 1.601.485 4.581 2.328l-.374-.37c-2.508-2.499-3.385-3.681-2.633-3.544 1.182.215 6.059 4.49 6.974 4.635.084.013.573-4.108 1.183-3.567.81.718 1.808 6.157 2.086 6.27 2.448.995 11.162-1.564 17.45-3.424 2.612-.772 5.416.161 6.383-.706 2.279-2.046 4.755-6.25 7.427-12.611.265-.631 16.517 3.198 13.481 6.929zM234.317 233.9l-7.321 1.335.066-.548c.584-4.891.744-8.81.479-11.756l-.015-.163c-1.651-17.141.794-16.681 7.335 1.381l-.544 9.751z"/>
  <path fill="#423565" fill-rule="evenodd" d="M235.435 232.942c.898 2.477 1.122 7.148-2.316 6.968l-.348-.016-.407-.015c-4.743-.166-20.584-.34-18.751-1.684l.081-.058.088-.059c1.493-.986 5.976-2.842 13.448-5.566 1.277 1.327 2.468 1.735 3.574 1.224l.066-.032c1.002-.498 3.668-3.239 4.565-.762z" clip-rule="evenodd"/>
  <path fill="#99CAEB" fill-rule="evenodd" d="M228.853 183.379c-.898 11.044-3.997 26.709-4.087 44.526 3.803 2.708 9.608 3.596 11.972 1.71 3.545-2.828-.242-5.488 2.557-10.67 2.799-5.182 2.723-25.898 4.265-30.028 6.477-17.351-13.809-16.583-14.707-5.538z" clip-rule="evenodd"/>
  <path fill="#99CAEB" fill-rule="evenodd" d="M279.703 207.951c6.64-1.614 8.794-9.683 6.461-24.205-19.331-5.058-34.535-7.747-45.612-8.065-11.076-.319-8.966 13.653-4.761 14.976 17.666 5.56 39.123 18.459 43.912 17.294z" clip-rule="evenodd"/>
  <path fill="#EAC93F" fill-rule="evenodd" d="M212.811 166.837c-10.723-3.693-16.424-15.379-12.731-26.103 3.693-10.724 15.379-16.424 26.103-12.732 10.724 3.693 16.424 15.38 12.732 26.104-3.693 10.723-15.38 16.423-26.104 12.731z" clip-rule="evenodd"/>
  <path fill="#fff" d="M219.915 146.04a5.761 5.761 0 103.752-10.894 5.761 5.761 0 00-3.752 10.894zm-.416 1.211c-5.014-1.727-10.478.938-12.205 5.952l-.833 2.421a.64.64 0 00.397.814l16.946 5.835a.64.64 0 00.813-.397l.834-2.421c1.726-5.014-.939-10.478-5.952-12.204z"/>
  <path fill="#A568DA" fill-rule="evenodd" d="M274.399 149.312c2.851-.161-1.729-8.1-11.226-12.56-3.704 3.454-5.067 9.327-8.831 12.28-1.441 1.13 6.494 9.786 8.39 8.694 5.599-3.224 8.472-8.234 11.667-8.414z" clip-rule="evenodd"/>
  <path fill="#A76F4F" d="M266.204 122.616c1.229 5.078 3.504 8.005 6.827 8.78 4.984 1.163 5.479-2.478 9.702 0 2.815 1.652 4.856 7.941 6.122 18.869l.095.74c1.568 12.02 3.96 20.966 7.177 26.837 1.546 2.821-6.802 2.821-25.043 0l-.33-.518c-5.356-8.405-8.76-14.601-10.212-18.588-2.223-6.102-1.965-16.075 0-18.601l.249-.322c1.185-1.537 2.073-2.792 2.664-3.765l-.114-.478c-1.205-5.015-2.131-7.548-2.779-7.6l-.02-.001c-.669 0 1.218-1.784 5.662-5.353zM343.985 218.874l2.705-.658-.93 6.889-.505-.009-.505-.011c-5.932-.143-10.28-.677-13.047-1.603-31.283-10.466 6.588-4.668 12.282-4.608z"/>
  <path fill="#99CAEB" fill-rule="evenodd" d="M295.007 230.636c11.049-.841 27.006-.23 44.617-2.928 2.08-4.181 2.049-10.053-.183-12.092-3.348-3.06-5.383 1.097-10.939-.857-5.557-1.954-26.005 1.362-30.326.485-18.151-3.683-14.218 16.233-3.169 15.392z" clip-rule="evenodd"/>
  <path fill="#99CAEB" fill-rule="evenodd" d="M296.784 176.486c-4.453-5.183-12.62-3.439-24.5 5.232 4.269 19.521 8.776 34.289 13.521 44.303 4.745 10.013 16.235 1.79 15.505-2.558-3.066-18.265-1.314-43.238-4.526-46.977z" clip-rule="evenodd"/>
  <path fill="#A76F4F" d="M255.466 105.437c-5.819 0-11.245-1.718-12.646 6.234-1.401 7.953 9.917 23.269 12.646 22.082 5.644-2.455 8.317-6.023 9.547-9.813l.082.001a4.539 4.539 0 004.542-4.536 4.539 4.539 0 00-3.738-4.464c-.722-5.372-5.118-9.504-10.433-9.504z"/>
  <path fill="#171717" d="M251.902 121.283c-.368 0-.667-.358-.667-.8 0-.442.299-.8.667-.8.368 0 .667.358.667.8 0 .442-.299.8-.667.8zM245.767 120.749c-.368 0-.666-.358-.666-.8 0-.442.298-.8.666-.8.369 0 .667.358.667.8 0 .442-.298.8-.667.8z"/>
  <path fill="#171717" d="M239.238 113.623c5.148 0 8.321-1.087 9.52-3.261 1.661 3.669 4.15 4.756 7.468 3.261-.952 2.911.513 5.237 4.393 6.976.862-2.046 2.39-3.804 4.585-5.274 1.946-1.304 7.234 4.354-.168 9.441.792.893 2.163 2.62 3.395 3.75 1.312-3.842 1.739-7.605 2.444-8.868 2.033-3.64 1.432-13.241-2.802-13.957-.777-3.579-3.037-5.726-9.365-5.726h-.001c-1.036 0-9.424 0-13.598.358-10.02 1.789-11.452 11.81-5.871 13.3z"/>
  <path fill="#423565" fill-rule="evenodd" d="M345.553 217.98l.159-.02c2.633-.312 7.049.476 6.175 3.735l-.114.41c-.445 1.568-1.778 6.007-3.998 13.318l-.306.065-.308.064c-3.349.672-5.37.629-6.065-.129-.355-.387.78-1.578 3.405-3.571l-1.074-5.936c1.594-.991 2.235-2.096 1.922-3.312-.279-1.084-2.405-4.261.204-4.624z" clip-rule="evenodd"/>
  <path fill="#A568DA" fill-rule="evenodd" d="M274.968 131.244c3.032-.15 4.393-2.34 7.883-.287 2.818 1.658 4.829 8.122 6.033 19.394 2.234 12.848 6.016 22.072 11.345 27.671 4.57 4.802-9.635 10.719-20.076 10.997-7.745.206-11.778-4.584-13.425-4.988l-.05-.011c-3.771-.74.85-10.649 0-12.579-2.331-5.302-5.047-9.598-6.135-12.59-2.225-6.123-1.967-16.13 0-18.665l.25-.323c1.185-1.542 2.074-2.801 2.667-3.778-.906 2.734.167 4.101 3.218 4.101 4.577 0 7.65-8.911 8.29-8.942z" clip-rule="evenodd"/>
  <path fill="#A76F4F" d="M279.928 156.284c3.036-3.73-13.216-7.559-13.481-6.929l-.182.431c-2.603 6.121-5.018 10.181-7.246 12.18-.966.868-3.77-.066-6.382.707l-1.75.516c-6.056 1.775-13.473 3.813-15.7 2.908-.279-.114-1.276-5.552-2.086-6.27-.611-.542-1.099 3.579-1.183 3.566-.916-.144-5.792-4.42-6.975-4.634-.788-.144.215 1.161 3.008 3.914l-.464-.286c-2.675-1.637-4.047-2.318-4.117-2.043-.073.291 1.285 1.738 4.074 4.341l-.605-.313c-2.725-1.403-4.106-2.003-4.141-1.801-.037.217 1.463 1.392 4.501 3.526l-.367-.11c-2.468-.733-3.702-.938-3.702-.614 0 .503 3.046 1.663 4.025 2.984l.044.062c1.122 1.629 4.207 2.156 4.542 2.268 9.01 3.004 33.72.79 35.622.142 1.35-.459 7.364-8.153 12.565-14.545z"/>
  <path fill="#171717" d="M244.567 118.082c-1.031 0-1.867-.298-1.867-.666 0-.369.836-.667 1.867-.667 1.031 0 1.867.298 1.867.667 0 .368-.836.666-1.867.666zM252.836 118.082c-1.031 0-1.867-.298-1.867-.666 0-.369.836-.667 1.867-.667 1.031 0 1.867.298 1.867.667 0 .368-.836.666-1.867.666z"/>
  <path fill="#803D15" d="M248.19 118.267a.17.17 0 00-.157-.184.174.174 0 00-.191.152l-.029.292c-.247 2.348-.566 3.851-.946 4.487l-.023.037c-.269.421-.154.779.312.969.397.162 1.074.222 2.044.187a.17.17 0 00.168-.175.172.172 0 00-.181-.162l-.216.006c-.806.018-1.369-.04-1.68-.167-.255-.104-.303-.223-.172-.446l.021-.035c.445-.697.789-2.342 1.05-4.961zM253.368 124.661c.011-.088-.06-.167-.159-.177-.098-.01-.187.054-.198.142-.14 1.134-.664 1.669-1.596 1.669-.099 0-.18.072-.18.161 0 .089.081.161.18.161 1.136 0 1.795-.673 1.953-1.956zM267.171 120.043a.169.169 0 00.202.13.174.174 0 00.126-.209c-.425-1.889-1.056-2.713-1.917-2.319-.768.352-1.623 1.567-2.596 3.655a.177.177 0 00.079.232.167.167 0 00.225-.081l.116-.248c.89-1.863 1.67-2.946 2.312-3.24.578-.264 1.07.378 1.453 2.08z"/>
  <path fill="#A568DA" fill-rule="evenodd" d="M277.052 132.418l-.016.047c-1.468 4.684-12.856 17.212-12.732 19.474.124 2.262 13.929 12.315 15.651 7.549 1.721-4.767 5.67-10.256 7.334-13.061.989-1.668.614-10.205-2.546-13.973-2.134-2.545-7.114-1.578-7.691-.036z" clip-rule="evenodd"/>
  <path fill="#803D15" d="M264.2 119.435c-.1.009-.172.084-.162.168.009.084.098.145.198.137 1.037-.087 1.402.097 1.278.555-.022.083.039.165.137.184.098.018.195-.033.217-.116.195-.721-.422-1.032-1.668-.928zM264.57 125.55l-1.1 7.201-2.634-2.271 3.734-4.93z"/>
  <path fill="#423565" d="M268.857 193.177a.283.283 0 01-.052-.4.293.293 0 01.405-.054l4.684 3.547c.04.03.071.07.09.116l10.127 24.075a.286.286 0 01-.156.374.288.288 0 01-.377-.151l-10.098-24.006-4.623-3.501zM278.152 160.362l.031-.066c.16-.339.373-.833.639-1.479l.281-.69.336-.842a384.987 384.987 0 002.185-5.68.282.282 0 01.366-.166c.147.057.22.223.164.372l-.7 1.844a281.347 281.347 0 01-1.779 4.573l-.226.559c-.835 2.044-1.049 2.501-1.354 2.501-.227 0-.738-.117-1.583-.357a.29.29 0 01-.196-.355.282.282 0 01.349-.199l.289.08.339.091.164.042c.183.045.331.078.442.098l.078.014.042-.075a5.83 5.83 0 00.133-.265zM264.517 153.106c-.28-.733-.291-1.323.003-1.75l.063-.088.093-.144.128-.208c.651-1.082 2.457-4.269 5.371-9.486a.284.284 0 01.384-.109.28.28 0 01.11.382l-2.651 4.729-1.4 2.475c-.903 1.586-1.432 2.485-1.594 2.713l-.018.026c-.19.247-.19.661.039 1.261a.283.283 0 01-.528.199zM259.717 156.536c-.641-2.647-.641-5.347-.001-8.096a.298.298 0 01.354-.214c.16.034.261.184.226.335-.622 2.669-.622 5.284-.001 7.849a.28.28 0 01-.223.337.296.296 0 01-.355-.211z"/>
</svg>
